<?xml version="1.0" encoding="utf-8"?>
<svg version="1.1" xmlns="http://www.w3.org/2000/svg" xmlns:xlink="http://www.w3.org/1999/xlink"
     x="0px" y="0px"
     viewBox="1000 0 1200 1200" style="enable-background:new 0 0 2200 2200;" xml:space="preserve">
    <circle cx="1566.751" cy="627.717" r="261.724"/>
    <path d="M1980.553,641.751c7.385-7.895,7.385-20.167,0-28.074l-45.124-48.265c-5.348-5.712-6.985-13.958-4.22-21.283
             l23.271-61.811c3.82-10.138-0.897-21.501-10.769-25.964l-60.162-27.225c-7.131-3.226-11.812-10.223-12.078-18.033l-2.195-66.043
             c-0.364-10.817-9.047-19.5-19.864-19.852l-66.031-2.207c-7.822-0.267-14.819-4.936-18.045-12.066l-27.225-60.174
             c-4.463-9.871-15.826-14.577-25.964-10.769l-61.811,23.284c-7.313,2.753-15.559,1.116-21.283-4.22l-48.265-45.137
             c-7.907-7.385-20.167-7.385-28.074,0l-48.277,45.137c-5.712,5.336-13.958,6.973-21.271,4.22l-61.811-23.284
             c-10.138-3.808-21.501,0.897-25.964,10.769l-27.225,60.174c-3.226,7.118-10.223,11.799-18.045,12.066l-66.031,2.207
             c-10.817,0.352-19.5,9.035-19.864,19.852l-2.195,66.043c-0.267,7.81-4.948,14.807-12.078,18.033l-60.162,27.225
             c-9.871,4.463-14.589,15.826-10.769,25.964l23.272,61.811c2.765,7.325,1.128,15.571-4.22,21.283l-45.124,48.265
             c-7.385,7.907-7.385,20.179,0,28.074l45.124,48.277c5.348,5.712,6.985,13.958,4.22,21.271l-23.272,61.811
             c-3.82,10.138,0.897,21.501,10.769,25.964l60.162,27.225c7.131,3.226,11.812,10.223,12.078,18.045l2.195,66.031
             c0.364,10.817,9.047,19.5,19.864,19.864l66.031,2.207c7.822,0.255,14.819,4.936,18.045,12.066l27.225,60.174
             c4.463,9.871,15.826,14.577,25.964,10.757l61.811-23.272c7.312-2.753,15.559-1.116,21.283,4.22l48.265,45.125
             c7.907,7.385,20.167,7.385,28.074,0l48.277-45.125c5.712-5.336,13.958-6.973,21.271-4.22l61.811,23.272
             c10.138,3.82,21.501-0.885,25.964-10.757l27.225-60.174c3.226-7.131,10.223-11.812-18.045-12.066l66.031-2.207
             c10.817-0.364,19.5-9.047,19.864-19.864l2.195-66.031c0.267-7.822,4.948-14.819,12.078-18.045l60.162-27.225
             c9.871-4.463,14.589-15.826,10.769-25.964l-23.271-61.811c-2.765-7.313-1.128-15.559,4.22-21.271L1980.553,641.751z
             M1566.757,929.548c-166.709,0-301.84-135.131-301.84-301.828s135.131-301.84,301.84-301.84
             c166.697,0,301.828,135.143,301.828,301.84S1733.455,929.548,1566.757,929.548z"/>
</svg>